<?xml version="1.0" encoding="utf-8"?>
<!-- Generator: Adobe Illustrator 26.5.0, SVG Export Plug-In . SVG Version: 6.00 Build 0)  -->
<svg version="1.1" id="Calque_1" xmlns="http://www.w3.org/2000/svg" xmlns:xlink="http://www.w3.org/1999/xlink" x="0px" y="0px"
	 viewBox="0 0 514 514" style="enable-background:new 0 0 514 514;" xml:space="preserve">
<g>
	<path d="M453.8,215.6H298.5V60.3c0-22.9-18.6-41.5-41.5-41.5c-22.9,0-41.5,18.6-41.5,41.5v155.3H60.3c-22.9,0-41.5,18.6-41.5,41.5
		s18.6,41.5,41.5,41.5h155.3v155.3c0,22.9,18.6,41.5,41.5,41.5c22.9,0,41.5-18.6,41.5-41.5l0-155.3h155.3
		c22.9,0,41.5-18.6,41.5-41.5C495.3,234.2,476.6,215.6,453.8,215.6L453.8,215.6z"/>
</g>
</svg>
