<?xml version="1.0" encoding="utf-8"?>
<!-- Generator: Adobe Illustrator 26.5.0, SVG Export Plug-In . SVG Version: 6.00 Build 0)  -->
<svg version="1.1" id="Calque_1" xmlns="http://www.w3.org/2000/svg" xmlns:xlink="http://www.w3.org/1999/xlink" x="0px" y="0px"
	 viewBox="0 0 466.7 466.7" style="enable-background:new 0 0 466.7 466.7;" xml:space="preserve">
<g>
	<path d="M336.5,157l-10.3,246.5c-0.1,1.8-1.9,3.6-3.8,3.6H137.8c-1.9,0-3.7-1.8-3.8-3.6L123.7,157c-0.4-10.8-9.6-19.2-20.4-18.8
		c-10.8,0.5-19.2,9.6-18.8,20.4L94.8,405c1,22.8,20.1,41.1,42.9,41.1h184.7c22.9,0,42-18.3,42.9-41.1l10.3-246.5
		c0.4-10.8-8-19.9-18.8-20.4C346.1,137.7,337,146.1,336.5,157L336.5,157z"/>
	<path d="M216.1,174.6V365c0,7.7,6.3,14,14,14c7.7,0,14-6.3,14-14V174.6c0-7.7-6.3-14-14-14C222.4,160.6,216.1,166.8,216.1,174.6z"
		/>
	<path d="M151.7,175l5.6,190.4c0.2,7.7,6.7,13.8,14.4,13.6c7.7-0.2,13.8-6.7,13.6-14.4l-5.6-190.4c-0.2-7.7-6.7-13.8-14.4-13.6
		C157.6,160.8,151.5,167.2,151.7,175L151.7,175z"/>
	<path d="M280.5,174.2l-5.6,190.4c-0.2,7.7,5.9,14.2,13.6,14.4c7.7,0.2,14.2-5.9,14.4-13.6l5.6-190.4c0.2-7.7-5.9-14.2-13.6-14.4
		C287.2,160.3,280.8,166.4,280.5,174.2L280.5,174.2z"/>
	<path d="M87.3,118.6h280c10.8,0,19.6-8.8,19.6-19.6s-8.8-19.6-19.6-19.6h-280c-10.8,0-19.6,8.8-19.6,19.6S76.5,118.6,87.3,118.6z"
		/>
	<path d="M190.3,89.7l5.8-23.1c0.8-3.3,5.4-6.9,8.8-6.9h44.8c3.4,0,8,3.6,8.8,6.9l5.8,23.1l38-9.5l-5.8-23.1
		c-5.2-20.7-25.5-36.6-46.8-36.6h-44.8c-21.4,0-41.6,15.9-46.8,36.6l-5.8,23.1L190.3,89.7z"/>
</g>
</svg>
